<?xml version="1.0" standalone="no"?>
<!DOCTYPE svg PUBLIC "-//W3C//DTD SVG 20010904//EN"
 "http://www.w3.org/TR/2001/REC-SVG-20010904/DTD/svg10.dtd">
<svg version="1.0" xmlns="http://www.w3.org/2000/svg"
 width="700.000000pt" height="618.000000pt" viewBox="0 0 700.000000 618.000000"
 preserveAspectRatio="xMidYMid meet">

<g transform="translate(0.000000,618.000000) scale(0.100000,-0.100000)"
fill="#000000" stroke="none">
<path d="M2093 5898 c-14 -24 -448 -676 -964 -1450 l-938 -1407 946 -1418
c521 -780 954 -1428 962 -1440 l16 -22 1416 -1 1416 0 245 367 c135 203 322
481 415 618 93 138 342 509 554 825 212 316 461 686 553 823 l167 247 -77 113
c-43 61 -194 284 -336 495 -474 702 -1186 1757 -1402 2075 l-147 217 -1399 0
-1400 0 -27 -42z m2714 -141 c-3 -8 -139 -216 -304 -463 -164 -248 -449 -678
-633 -957 -184 -279 -339 -507 -343 -507 -9 0 -1287 1921 -1287 1936 0 2 579
4 1286 4 1071 0 1285 -2 1281 -13z m-2028 -1096 c359 -539 652 -983 650 -988
-3 -6 -250 -383 -342 -520 l-22 -33 -1312 0 c-722 0 -1313 2 -1313 5 0 10
1673 2515 1680 2515 4 0 300 -441 659 -979z m2308 751 c83 -125 258 -384 389
-577 130 -192 338 -501 462 -685 125 -184 266 -393 315 -465 203 -296 427
-635 427 -646 0 -10 -644 -981 -799 -1204 -30 -44 -252 -375 -494 -735 -241
-360 -443 -656 -450 -657 -7 -1 -88 114 -182 255 -93 141 -381 572 -638 957
-258 385 -475 711 -483 725 -15 25 -12 31 166 305 101 154 196 299 212 322
l29 42 -210 315 -210 314 401 604 c413 622 477 718 741 1121 86 130 160 237
164 237 4 0 76 -103 160 -228z m-1397 -2123 c84 -127 153 -236 153 -242 0 -7
-68 -115 -151 -240 -84 -125 -152 -232 -152 -237 0 -6 -8 -10 -17 -9 -20 1
-318 440 -318 469 0 21 306 488 321 489 6 1 80 -103 164 -230z m-455 -600 c99
-149 181 -277 183 -284 2 -7 -91 -154 -205 -328 -114 -173 -308 -468 -430
-654 -554 -843 -645 -978 -656 -980 -7 -1 -68 82 -136 185 -68 103 -445 667
-837 1254 -393 586 -714 1069 -714 1072 0 3 588 6 1308 6 l1307 0 180 -271z
m534 -799 c431 -638 1036 -1545 1039 -1558 3 -9 -257 -12 -1272 -12 -798 0
-1276 4 -1276 9 0 12 42 76 890 1366 130 198 265 404 300 458 34 54 66 97 71
95 5 -2 117 -163 248 -358z"/>
</g>
</svg>
