<svg width="35" height="41" viewBox="0 0 35 41" fill="none" xmlns="http://www.w3.org/2000/svg">
<path d="M5.90894 5.91077L5.90894 35.0893H12.2314L12.2314 5.91077L5.90894 5.91077Z" fill="#53D769"/>
<path d="M14.3389 5.91077L14.3389 20.697H20.6613L20.6613 5.91077L14.3389 5.91077Z" fill="#FECB2E"/>
<path d="M22.7687 5.91077V13.043L29.0911 13.043V5.91077L22.7687 5.91077Z" fill="#FC3158"/>
<path d="M33.3104 35.6528L33.3104 5.34723C33.3104 4.56691 33.0004 3.81855 32.4486 3.26678C31.8968 2.71501 31.1485 2.40503 30.3682 2.40503L4.6319 2.40503C3.85158 2.40503 3.10322 2.71501 2.55145 3.26678C1.99968 3.81855 1.6897 4.56691 1.6897 5.34723L1.6897 35.6528C1.6897 36.0392 1.7658 36.4218 1.91366 36.7788C2.06152 37.1357 2.27824 37.4601 2.55145 37.7333C2.82466 38.0065 3.149 38.2232 3.50597 38.3711C3.86293 38.5189 4.24552 38.595 4.6319 38.595L30.3682 38.595C30.7545 38.595 31.1371 38.5189 31.4941 38.3711C31.8511 38.2232 32.1754 38.0065 32.4486 37.7333C32.7218 37.4601 32.9385 37.1357 33.0864 36.7788C33.2343 36.4218 33.3104 36.0392 33.3104 35.6528V35.6528Z" stroke="#666666" stroke-width="2.82" stroke-miterlimit="10"/>
</svg>
