<?xml version="1.0" encoding="UTF-8" standalone="no"?>
<svg
   xmlns:dc="http://purl.org/dc/elements/1.1/"
   xmlns:cc="http://creativecommons.org/ns#"
   xmlns:rdf="http://www.w3.org/1999/02/22-rdf-syntax-ns#"
   xmlns:svg="http://www.w3.org/2000/svg"
   xmlns="http://www.w3.org/2000/svg"
   xmlns:sodipodi="http://sodipodi.sourceforge.net/DTD/sodipodi-0.dtd"
   xmlns:inkscape="http://www.inkscape.org/namespaces/inkscape"
   id="e1f15ea7-6e8a-4404-b449-490159397ed9"
   data-name="Layer 1"
   width="860"
   height="656.39618"
   viewBox="0 0 860 656.39618"
   version="1.1"
   sodipodi:docname="undraw_information_tab_ocka.svg"
   inkscape:version="0.92.5 (2060ec1f9f, 2020-04-08)">
  <metadata
     id="metadata67">
    <rdf:RDF>
      <cc:Work
         rdf:about="">
        <dc:format>image/svg+xml</dc:format>
        <dc:type
           rdf:resource="http://purl.org/dc/dcmitype/StillImage" />
      </cc:Work>
    </rdf:RDF>
  </metadata>
  <defs
     id="defs65" />
  <sodipodi:namedview
     pagecolor="#ffffff"
     bordercolor="#666666"
     borderopacity="1"
     objecttolerance="10"
     gridtolerance="10"
     guidetolerance="10"
     inkscape:pageopacity="0"
     inkscape:pageshadow="2"
     inkscape:window-width="1920"
     inkscape:window-height="1043"
     id="namedview63"
     showgrid="false"
     inkscape:zoom="0.35953896"
     inkscape:cx="430"
     inkscape:cy="328.19809"
     inkscape:window-x="0"
     inkscape:window-y="0"
     inkscape:window-maximized="1"
     inkscape:current-layer="e1f15ea7-6e8a-4404-b449-490159397ed9" />
  <ellipse
     cx="563.3584"
     cy="638.41455"
     rx="248.64157"
     ry="17.981638"
     id="ellipse2"
     style="fill:#e6e6e6;stroke-width:1.32100952" />
  <ellipse
     cx="621.37262"
     cy="55.251614"
     id="circle24"
     rx="38.072502"
     ry="36.099937"
     style="fill:#2f2e41;stroke-width:1.32100952" />
  <ellipse
     cx="557.91846"
     cy="98.227715"
     id="circle26"
     rx="45.324398"
     ry="42.976105"
     style="fill:#2f2e41;stroke-width:1.32100952" />
  <path
     d="m 505.66588,468.12789 22.2306,37.29319 c 0,0 29.07072,-27.56454 13.68034,-34.86103 l -23.94058,-7.29649 z"
     id="path28"
     inkscape:connector-curvature="0"
     style="fill:#ffb8b8;stroke-width:1.32100952" />
  <polygon
     points="658.143,608.986 673.269,614.028 678.311,589.448 663.185,587.557 "
     id="polygon30"
     transform="matrix(1.3566208,0,0,1.2863331,-354.69385,-187.94796)"
     style="fill:#ffb8b8" />
  <path
     d="m 502.20934,289.64689 -4.40697,42.64364 c 0,0 -79.34855,69.3582 -51.98796,95.30129 27.3606,25.94308 61.5615,47.02184 61.5615,47.02184 l 15.39037,-10.53938 -35.05585,-45.40041 70.96673,-47.83256 -16.2454,200.24821 24.79561,6.48578 55.57636,-202.68037 c 0,0 17.10042,-64.85773 -24.79561,-97.28658 z"
     id="path32"
     inkscape:connector-curvature="0"
     style="fill:#2f2e41;stroke-width:1.32100952" />
  <path
     d="m 552.69202,594.60045 c 0,0 -12.82531,-15.40371 -18.81045,-1.62144 a 203.1388,192.61402 0 0 0 -9.40524,29.18597 c 0,0 -22.23053,31.61813 11.97029,27.56453 34.20083,-4.05361 23.94059,-18.6466 23.94059,-18.6466 a 11.449879,10.856652 0 0 0 5.13013,-10.53938 c -0.85502,-7.29649 -5.13013,-24.32164 -5.13013,-24.32164 0,0 -4.27511,-7.29649 -7.69519,-1.62144 z"
     id="path34"
     inkscape:connector-curvature="0"
     style="fill:#2f2e41;stroke-width:1.32100952" />
  <path
     d="m 517.20866,488.80128 c 0,0 -7.26768,6.89115 4.70261,18.24124 0,0 1.71004,31.61814 17.10041,28.37522 15.39038,-3.24292 20.52051,-42.96825 18.81047,-47.02191 -1.71003,-4.05366 2.56506,-34.05029 -7.69519,-33.23958 -10.26024,0.81071 -23.08561,11.3501 -23.08561,11.3501 0,0 22.23055,19.45732 0.85502,32.42887 1.1e-4,9e-5 -5.55758,-2.02672 -10.68771,-10.13394 z"
     id="path36"
     inkscape:connector-curvature="0"
     style="fill:#2f2e41;stroke-width:1.32100952" />
  <path
     d="m 580.90771,175.45742 -64.98159,1.62145 c 14.31973,-19.26869 17.01505,-41.99945 11.11527,-67.28989 l 42.75105,8.1072 c -8.2327,20.6404 -8.37466,38.34511 11.11527,57.56124 z"
     id="path38"
     inkscape:connector-curvature="0"
     style="fill:#ffb8b8;stroke-width:1.32100952" />
  <path
     d="M 601.42822,280.04049 500.53575,306.79431 481.17288,180.31408 a 25.679013,24.348562 0 0 1 22.67998,-22.58774 l 23.18849,-2.53697 41.89603,4.05361 19.81547,5.3099 a 25.584511,24.258956 0 0 1 18.60062,24.43904 z"
     id="path40"
     inkscape:connector-curvature="0"
     style="fill:#00b0ff;stroke-width:1.32100952" />
  <path
     d="m 504.81087,282.47265 -16.2454,17.83589 -39.33096,-39.72537 14.62227,-68.74569 a 44.433901,42.131745 0 0 1 35.20009,-33.05045 l 10.88417,-1.97621 -23.94064,92.42223 z"
     id="path42"
     inkscape:connector-curvature="0"
     style="fill:#00b0ff;stroke-width:1.32100952" />
  <path
     d="m 504.00494,307.54298 -12.0194,-15.34166 10.26026,-9.72867 16.66485,4.12212 a 14.12637,13.394471 0 0 1 6.85986,21.99887 v 0 a 14.126383,13.394484 0 0 1 -21.76557,-1.05066 z"
     id="path44"
     inkscape:connector-curvature="0"
     style="fill:#ffb8b8;stroke-width:1.32100952" />
  <path
     d="m 583.47277,287.33699 16.2454,17.83587 39.33096,-39.72535 -14.6223,-68.74573 a 44.433874,42.131719 0 0 0 -35.20009,-33.05046 l -10.88417,-1.9762 23.94059,92.42225 z"
     id="path46"
     inkscape:connector-curvature="0"
     style="fill:#00b0ff;stroke-width:1.32100952" />
  <path
     d="m 584.27868,312.40731 12.01941,-15.34166 -10.26026,-9.72866 -16.66484,4.12212 a 14.12637,13.394471 0 0 0 -6.85987,21.99886 v 0 a 14.12637,13.394471 0 0 0 21.76556,-1.05066 z"
     id="path48"
     inkscape:connector-curvature="0"
     style="fill:#ffb8b8;stroke-width:1.32100952" />
  <ellipse
     cx="551.65186"
     cy="101.70411"
     id="circle50"
     rx="29.683363"
     ry="28.145443"
     style="fill:#ffb8b8;stroke-width:1.32100952" />
  <path
     d="m 519.84594,99.087242 h 50.76339 L 586.01962,79.318231 C 570.85897,66.735655 551.88447,64.480263 530.72386,68.144434 Z"
     id="path52"
     inkscape:connector-curvature="0"
     style="fill:#2f2e41;stroke-width:1.32100952" />
  <path
     d="m 767.88717,552.19143 a 324.54007,307.72538 0 0 1 -15.16011,85.06508 c -0.21122,0.63908 -0.43256,1.2686 -0.6539,1.90772 H 695.4969 c 0.0603,-0.57241 0.12074,-1.21141 0.18113,-1.90772 3.77241,-41.12088 25.52167,-291.39418 -0.48295,-334.19386 2.27357,3.47206 77.07814,118.46923 72.69209,249.12878 z"
     id="path54"
     inkscape:connector-curvature="0"
     style="fill:#e6e6e6;stroke-width:1.32100952" />
  <path
     d="m 763.64196,637.25651 c -0.47283,0.63908 -0.96576,1.27814 -1.46875,1.90772 h -42.44225 c 0.32191,-0.5437 0.69413,-1.18277 1.12669,-1.90772 7.0117,-11.99954 27.76499,-47.87415 47.02952,-85.06508 20.70306,-39.96669 39.69594,-81.44998 38.09642,-96.4637 0.49292,3.38618 14.81804,106.61272 -42.34163,181.52878 z"
     id="path56"
     inkscape:connector-curvature="0"
     style="fill:#e6e6e6;stroke-width:1.32100952" />
  <path
     d="m 367.00431,595.01821 a 164.73142,156.19655 0 0 0 7.69503,43.1777 c 0.10717,0.32437 0.21957,0.64391 0.33188,0.96832 h 28.71725 c -0.0306,-0.29051 -0.0613,-0.61486 -0.0919,-0.96832 -1.91482,-20.87231 -12.95437,-147.90711 0.24511,-169.63155 -1.15399,1.76234 -39.12362,60.13311 -36.89733,126.45385 z"
     id="path58"
     inkscape:connector-curvature="0"
     style="fill:#e6e6e6;stroke-width:1.32100952" />
  <path
     d="m 369.1591,638.19591 c 0.24001,0.32437 0.49022,0.64876 0.74552,0.96832 h 21.54303 c -0.16341,-0.27598 -0.35233,-0.60035 -0.5719,-0.96832 -3.55903,-6.09079 -14.09308,-24.30012 -23.87144,-43.1777 -10.50856,-20.28647 -20.14904,-41.34275 -19.33715,-48.96346 -0.2502,1.71877 -7.5214,54.11494 21.49194,92.14116 z"
     id="path60"
     inkscape:connector-curvature="0"
     style="fill:#e6e6e6;stroke-width:1.32100952" />
</svg>
