<?xml version="1.0" encoding="utf-8"?><svg xml:space="preserve" viewBox="0 0 100 100" y="0" x="0" xmlns="http://www.w3.org/2000/svg" id="圖層_1" version="1.1" width="47px" height="47px" xmlns:xlink="http://www.w3.org/1999/xlink" style="width:100%;height:100%;background-size:initial;background-repeat-y:initial;background-repeat-x:initial;background-position-y:initial;background-position-x:initial;background-origin:initial;background-color:initial;background-clip:initial;background-attachment:initial;animation-play-state:paused" ><g class="ldl-scale" style="transform-origin:50% 50%;transform:rotate(0deg) scale(0.8, 0.8);animation-play-state:paused" ><path fill="#333" d="M23.8 35.3V43c0 1.7-1.4 3-3 3H13c-1.7 0-3-1.4-3-3v-7.7c0-1.7 1.4-3 3-3h7.7c1.7 0 3.1 1.4 3.1 3z" style="fill:rgb(51, 51, 51);animation-play-state:paused" ></path>
<path fill="#333" d="M20.7 54H13c-1.7 0-3 1.4-3 3v7.7c0 1.7 1.4 3 3 3h7.7c1.7 0 3-1.4 3-3V57c.1-1.6-1.3-3-3-3z" style="fill:rgb(51, 51, 51);animation-play-state:paused" ></path>
<path fill="#333" d="M20.7 10.5H13c-1.7 0-3 1.4-3 3v7.8c0 1.7 1.4 3 3 3h7.7c1.7 0 3-1.4 3-3v-7.8c.1-1.6-1.3-3-3-3z" style="fill:rgb(51, 51, 51);animation-play-state:paused" ></path>
<path fill="#333" d="M10 78.7v7.7c0 1.7 1.4 3 3 3h7.7c1.7 0 3-1.4 3-3v-7.7c0-1.7-1.4-3-3-3H13c-1.6 0-3 1.4-3 3z" style="fill:rgb(51, 51, 51);animation-play-state:paused" ></path>
<path fill="#333" d="M87 32.3H30c-1.7 0-3 1.4-3 3V43c0 1.7 1.4 3 3 3h57c1.7 0 3-1.4 3-3v-7.7c0-1.6-1.4-3-3-3z" style="fill:rgb(51, 51, 51);animation-play-state:paused" ></path>
<path fill="#333" d="M87 54H30c-1.7 0-3 1.4-3 3v7.7c0 1.7 1.4 3 3 3h57c1.7 0 3-1.4 3-3V57c0-1.6-1.4-3-3-3z" style="fill:rgb(51, 51, 51);animation-play-state:paused" ></path>
<path fill="#333" d="M87 75.7H30c-1.7 0-3 1.4-3 3v7.7c0 1.7 1.4 3 3 3h57c1.7 0 3-1.4 3-3v-7.7c0-1.6-1.4-3-3-3z" style="fill:rgb(51, 51, 51);animation-play-state:paused" ></path>
<path fill="#333" d="M87 10.5H30c-1.7 0-3 1.4-3 3v7.8c0 1.7 1.4 3 3 3h57c1.7 0 3-1.4 3-3v-7.8c0-1.6-1.4-3-3-3z" style="fill:rgb(51, 51, 51);animation-play-state:paused" ></path>
<metadata xmlns:d="https://loading.io/stock/" style="animation-play-state:paused" ><d:name style="animation-play-state:paused" >list</d:name>
<d:tags style="animation-play-state:paused" >task,item,check list,todo,work,list,web application</d:tags>
<d:license style="animation-play-state:paused" >by</d:license>
<d:slug style="animation-play-state:paused" >h7ywcy</d:slug></metadata></g><!-- generated by https://loading.io/ --></svg>